<svg version="1.1" id="prefix__Layer_1" xmlns="http://www.w3.org/2000/svg" xmlns:xlink="http://www.w3.org/1999/xlink" x="0" y="0" viewBox="0 0 149 55" xml:space="preserve"><style>.prefix__st0{clip-path:url(#prefix__SVGID_2_);fill:red}</style><switch><g><defs><path id="prefix__SVGID_1_" d="M0 .1h149v54.7H0z"/></defs><clipPath id="prefix__SVGID_2_"><use xlink:href="#prefix__SVGID_1_" overflow="visible"/></clipPath><path class="prefix__st0" d="M34.4 17.8c0 7.2-6 11.5-15 11.5H6.1V7c0-.6.5-.9.9-.9h12.9c8.7-.1 14.5 4 14.5 11.7m5.9-.6c0-10.7-8-17-20.2-17H3.9S2.4.1 1.1 1.4C0 2.4 0 4.1 0 4.1v50.8h6.1v-20h13.1c11.4 0 21.1-6 21.1-17.7M64.9 29.3H51V7c0-.5.4-.9.9-.9h13.9C76.6 6.4 79 13 79.3 17c.4 12.6-14.4 12.3-14.4 12.3M90 48.7c-4.1 0-5.4-.9-7.4-3.3-.5-.6-9-12-9-12 6.2-2.2 11.6-7 11.6-16.5C85.2 7.2 78.4.2 66.6.2H48.3s-1.2.1-2.4 1.3c-1.2 1.1-1 2.9-1 2.9v50.5H51V36.6c0-.6.1-1.7 1.3-1.7h15.1c3.2 4.3 10.6 14.3 11.7 15.8 1.8 2.4 3.7 4.2 8 4.2h23.4c16.9 0 28.7-12.3 28.7-27.5S127.4.1 110.5.1H95.9c-1.4 0-4 .9-4 4v38.6H98V7c0-.7.4-.9.8-.9h12.3c1.7 0 21 .6 21.7 21.4-1 22.1-22.3 21.2-22.3 21.2H90M144.8 54.9c2.3 0 4.2-1.9 4.2-4.2s-1.9-4.2-4.2-4.2c-2.3 0-4.2 1.9-4.2 4.2s1.9 4.2 4.2 4.2"/></g></switch></svg>