<?xml version="1.0" encoding="iso-8859-1"?>
<!-- Generator: Adobe Illustrator 19.0.0, SVG Export Plug-In . SVG Version: 6.00 Build 0)  -->
<svg version="1.1" id="Layer_1" xmlns="http://www.w3.org/2000/svg" xmlns:xlink="http://www.w3.org/1999/xlink" x="0px" y="0px"
	 viewBox="0 0 512 512" style="enable-background:new 0 0 512 512;" xml:space="preserve">
<path style="fill:#F6A7C5;" d="M207.953,224.219h96.094V60.518c0-6.066-3.427-11.612-8.854-14.325L219.542,8.367
	c-5.324-2.663-11.589,1.209-11.589,7.162V224.219z"/>
<circle style="fill:#FFD9E4;" cx="276.019" cy="78.647" r="12.012"/>
<path style="fill:#F082A6;" d="M232.036,14.614l-12.494-6.247c-5.324-2.663-11.589,1.209-11.589,7.163v208.689h24.023V15.529
	C231.976,15.217,232.003,14.914,232.036,14.614z"/>
<rect x="191.937" y="160.156" style="fill:#878493;" width="128.125" height="152.149"/>
<rect x="191.937" y="160.156" style="fill:#787485;" width="24.023" height="152.149"/>
<path style="fill:#E6608D;" d="M312.055,504.492H199.945c-17.69,0-32.031-14.341-32.031-32.031v-184.18h176.172v184.18
	C344.086,490.151,329.745,504.492,312.055,504.492z"/>
<path style="fill:#D4506F;" d="M199.945,472.461v-184.18h-32.031v184.18c0,17.69,14.341,32.031,32.031,32.031h32.031
	C214.286,504.492,199.945,490.151,199.945,472.461z"/>
<rect x="167.914" y="288.281" style="fill:#FCDE76;" width="176.172" height="48.047"/>
<rect x="167.914" y="288.281" style="fill:#FCCF6F;" width="32.031" height="48.047"/>
<g>
	<path style="fill:#FDFAB6;" d="M384.125,424.414c17.69,0,32.031-14.341,32.031-32.031c0,17.69,14.341,32.031,32.031,32.031
		c-17.69,0-32.031,14.341-32.031,32.031C416.156,438.755,401.815,424.414,384.125,424.414z"/>
	<path style="fill:#FDFAB6;" d="M55.804,256.25c17.69,0,32.031-14.341,32.031-32.031c0,17.69,14.341,32.031,32.031,32.031
		c-17.69,0-32.031,14.341-32.031,32.031C87.836,270.591,73.495,256.25,55.804,256.25z"/>
	<path style="fill:#FDFAB6;" d="M376.117,96.094c22.113,0,40.039-17.927,40.039-40.039c0,22.113,17.926,40.039,40.039,40.039
		c-22.113,0-40.039,17.927-40.039,40.039C416.156,114.02,398.23,96.094,376.117,96.094z"/>
</g>
<path d="M344.086,280.774H327.57v-56.555c0-4.146-3.361-7.507-7.507-7.507c-4.146,0-7.507,3.361-7.507,7.507v56.555h-113.11v-113.11
	h113.11v26.025c0,4.146,3.361,7.507,7.507,7.507c4.146,0,7.507-3.361,7.507-7.507v-33.533c0-4.146-3.361-7.507-7.507-7.507h-8.508
	V60.518c0-8.967-4.983-17.03-13.004-21.04L222.9,1.652c-4.845-2.422-10.488-2.169-15.096,0.679s-7.358,7.782-7.358,13.198v137.12
	h-8.508c-4.146,0-7.507,3.361-7.507,7.507v120.618h-16.516c-4.146,0-7.507,3.361-7.507,7.507v96.594
	c0,4.146,3.361,7.507,7.507,7.507s7.507-3.361,7.507-7.507v-41.04h161.157v128.626c0,13.522-11.002,24.524-24.524,24.524H199.945
	c-13.522,0-24.524-11.002-24.524-24.524v-56.555c0-4.146-3.361-7.507-7.507-7.507s-7.507,3.361-7.507,7.507v56.555
	c0,21.801,17.737,39.539,39.539,39.539h112.109c21.801,0,39.539-17.737,39.539-39.539v-184.18
	C351.593,284.135,348.232,280.774,344.086,280.774z M215.46,15.529c0-0.104,0-0.279,0.237-0.425
	c0.238-0.146,0.393-0.068,0.487-0.022l75.652,37.826c2.901,1.45,4.704,4.367,4.704,7.61v92.131h-81.079V15.529H215.46z
	 M175.421,328.821v-33.032h161.157v33.032H175.421z"/>
<path d="M448.188,416.907c-13.522,0-24.524-11.002-24.524-24.524c0-4.146-3.361-7.507-7.507-7.507c-4.146,0-7.507,3.361-7.507,7.507
	c0,13.522-11.002,24.524-24.524,24.524c-4.146,0-7.507,3.361-7.507,7.507c0,4.146,3.361,7.507,7.507,7.507
	c13.522,0,24.524,11.002,24.524,24.524c0,4.146,3.361,7.507,7.507,7.507c4.146,0,7.507-3.361,7.507-7.507
	c0-13.522,11.002-24.524,24.524-24.524c4.146,0,7.507-3.361,7.507-7.507C455.695,420.268,452.334,416.907,448.188,416.907z
	 M416.156,433.29c-2.469-3.405-5.469-6.406-8.876-8.876c3.405-2.469,6.406-5.469,8.876-8.876c2.469,3.405,5.469,6.406,8.876,8.876
	C421.626,426.884,418.626,429.884,416.156,433.29z"/>
<path d="M119.867,248.743c-13.522,0-24.524-11.002-24.524-24.524c0-4.146-3.361-7.507-7.507-7.507s-7.507,3.361-7.507,7.507
	c0,13.522-11.002,24.524-24.524,24.524c-4.146,0-7.507,3.361-7.507,7.507c0,4.146,3.361,7.507,7.507,7.507
	c13.522,0,24.524,11.002,24.524,24.524c0,4.146,3.361,7.507,7.507,7.507s7.507-3.361,7.507-7.507
	c0-13.522,11.002-24.524,24.524-24.524c4.146,0,7.507-3.361,7.507-7.507C127.374,252.104,124.013,248.743,119.867,248.743z
	 M87.836,265.126c-2.469-3.405-5.469-6.406-8.876-8.876c3.405-2.469,6.406-5.469,8.876-8.876c2.469,3.405,5.469,6.406,8.876,8.876
	C93.305,258.719,90.305,261.719,87.836,265.126z"/>
<path d="M456.195,88.586c-17.938,0-32.532-14.594-32.532-32.532c0-4.146-3.361-7.507-7.507-7.507c-4.146,0-7.507,3.361-7.507,7.507
	c0,17.938-14.594,32.532-32.532,32.532c-4.146,0-7.507,3.361-7.507,7.507s3.361,7.507,7.507,7.507
	c17.938,0,32.532,14.594,32.532,32.532c0,4.146,3.361,7.507,7.507,7.507c4.146,0,7.507-3.361,7.507-7.507
	c0-17.938,14.594-32.532,32.532-32.532c4.146,0,7.507-3.361,7.507-7.507S460.341,88.586,456.195,88.586z M416.156,110.515
	c-3.712-5.78-8.641-10.709-14.421-14.421c5.78-3.712,10.709-8.641,14.421-14.421c3.712,5.78,8.641,10.709,14.421,14.421
	C424.798,99.805,419.868,104.735,416.156,110.515z"/>
<g>
</g>
<g>
</g>
<g>
</g>
<g>
</g>
<g>
</g>
<g>
</g>
<g>
</g>
<g>
</g>
<g>
</g>
<g>
</g>
<g>
</g>
<g>
</g>
<g>
</g>
<g>
</g>
<g>
</g>
</svg>
