<?xml version="1.0" encoding="iso-8859-1"?>
<!-- Generator: Adobe Illustrator 19.0.0, SVG Export Plug-In . SVG Version: 6.00 Build 0)  -->
<svg version="1.1" id="Layer_1" xmlns="http://www.w3.org/2000/svg" xmlns:xlink="http://www.w3.org/1999/xlink" x="0px" y="0px"
	 viewBox="0 0 512 512" style="enable-background:new 0 0 512 512;" xml:space="preserve">
<g>
	<path style="fill:#FCDE76;" d="M223.937,39.577C241.645,39.577,256,25.222,256,7.515c0,17.708,14.355,32.063,32.063,32.063
		C270.355,39.577,256,53.932,256,71.64C256,53.932,241.645,39.577,223.937,39.577z"/>
	<path style="fill:#FCDE76;" d="M55.609,111.718c17.708,0,32.063-14.355,32.063-32.063c0,17.708,14.355,32.063,32.063,32.063
		c-17.708,0-32.063,14.355-32.063,32.063C87.671,126.073,73.316,111.718,55.609,111.718z"/>
	<path style="fill:#FCDE76;" d="M392.266,151.796c17.708,0,32.063-14.355,32.063-32.063c0,17.708,14.355,32.063,32.063,32.063
		c-17.708,0-32.063,14.355-32.063,32.063C424.329,166.152,409.974,151.796,392.266,151.796z"/>
</g>
<path style="fill:#FCD9B1;" d="M151.796,504.485H23.546V304.094c0-35.415,28.71-64.125,64.125-64.125l0,0
	c35.415,0,64.125,28.71,64.125,64.125V504.485z"/>
<path style="fill:#FAB364;" d="M99.695,241.111c-3.897-0.739-7.911-1.142-12.023-1.142l0,0c-35.415,0-64.125,28.71-64.125,64.125
	v200.391h24.047V304.094C47.593,272.79,70.029,246.741,99.695,241.111z"/>
<path style="fill:#8A6CBD;" d="M95.687,376.235H79.656c-17.708,0-32.063-14.355-32.063-32.063V239.969
	c0-22.134,17.944-40.078,40.078-40.078l0,0c22.134,0,40.078,17.944,40.078,40.078v104.204
	C127.75,361.88,113.394,376.235,95.687,376.235z"/>
<path style="fill:#775991;" d="M63.624,344.172V239.969c0-19.39,13.769-35.561,32.063-39.275c-2.59-0.526-5.27-0.804-8.016-0.804
	l0,0c-22.134,0-40.078,17.944-40.078,40.078v104.204c0,17.708,14.355,32.063,32.063,32.063h16.031
	C77.979,376.235,63.624,361.88,63.624,344.172z"/>
<path style="fill:#FCD9B1;" d="M320.125,504.485h-128.25V215.922c0-35.415,28.71-64.125,64.125-64.125l0,0
	c35.415,0,64.125,28.71,64.125,64.125V504.485z"/>
<path style="fill:#FAB364;" d="M268.023,152.939c-3.897-0.739-7.911-1.142-12.023-1.142l0,0c-35.415,0-64.125,28.71-64.125,64.125
	v288.564h24.047V215.922C215.922,184.618,238.358,158.569,268.023,152.939z"/>
<path style="fill:#E6608D;" d="M264.016,296.078h-16.031c-17.708,0-32.063-14.355-32.063-32.063V159.812
	c0-22.134,17.944-40.078,40.078-40.078l0,0c22.134,0,40.078,17.944,40.078,40.078v104.204
	C296.078,281.723,281.723,296.078,264.016,296.078z"/>
<path style="fill:#D4506F;" d="M231.953,264.016V159.812c0-19.39,13.769-35.561,32.063-39.275c-2.59-0.526-5.27-0.804-8.016-0.804
	l0,0c-22.134,0-40.078,17.944-40.078,40.078v104.204c0,17.708,14.355,32.063,32.063,32.063h16.031
	C246.308,296.078,231.953,281.723,231.953,264.016z"/>
<path style="fill:#FCD9B1;" d="M488.454,504.485h-128.25V328.141c0-35.415,28.71-64.125,64.125-64.125l0,0
	c35.415,0,64.125,28.71,64.125,64.125V504.485z"/>
<path style="fill:#FAB364;" d="M436.352,265.158c-3.897-0.739-7.911-1.142-12.023-1.142l0,0c-35.415,0-64.125,28.71-64.125,64.125
	v176.344h24.047V328.141C384.25,296.837,406.686,270.788,436.352,265.158z"/>
<path style="fill:#38C7C2;" d="M432.344,408.297h-16.031c-17.708,0-32.063-14.355-32.063-32.063V272.031
	c0-22.134,17.944-40.078,40.078-40.078l0,0c22.134,0,40.078,17.944,40.078,40.078v104.204
	C464.407,393.942,450.052,408.297,432.344,408.297z"/>
<path style="fill:#00B5B8;" d="M400.282,376.235V272.031c0-19.39,13.769-35.561,32.063-39.275c-2.59-0.526-5.27-0.804-8.016-0.804
	l0,0c-22.134,0-40.078,17.944-40.078,40.078v104.204c0,17.708,14.355,32.063,32.063,32.063h16.031
	C414.637,408.297,400.282,393.942,400.282,376.235z"/>
<path d="M223.937,47.092c13.535,0,24.548,11.012,24.548,24.548c0,4.151,3.365,7.515,7.515,7.515c4.15,0,7.515-3.364,7.515-7.515
	c0-13.536,11.013-24.548,24.548-24.548c4.15,0,7.515-3.364,7.515-7.515s-3.365-7.515-7.515-7.515
	c-13.535,0-24.548-11.012-24.548-24.548C263.515,3.364,260.15,0,256,0c-4.15,0-7.515,3.364-7.515,7.515
	c0,13.536-11.013,24.548-24.548,24.548c-4.15,0-7.515,3.364-7.515,7.515S219.787,47.092,223.937,47.092z M256,30.693
	c2.472,3.409,5.475,6.413,8.884,8.884c-3.409,2.472-6.413,5.476-8.884,8.884c-2.472-3.409-5.475-6.413-8.884-8.884
	C250.525,37.105,253.528,34.102,256,30.693z"/>
<path d="M392.266,159.311c13.535,0,24.548,11.012,24.548,24.548c0,4.151,3.365,7.515,7.515,7.515s7.515-3.364,7.515-7.515
	c0-13.536,11.013-24.548,24.548-24.548c4.15,0,7.515-3.364,7.515-7.515s-3.365-7.515-7.515-7.515
	c-13.535,0-24.548-11.012-24.548-24.548c0-4.151-3.365-7.515-7.515-7.515s-7.515,3.364-7.515,7.515
	c0,13.536-11.013,24.548-24.548,24.548c-4.15,0-7.515,3.364-7.515,7.515S388.116,159.311,392.266,159.311z M424.329,142.912
	c2.472,3.409,5.475,6.413,8.884,8.884c-3.409,2.472-6.413,5.476-8.884,8.884c-2.472-3.409-5.475-6.413-8.884-8.884
	C418.854,149.325,421.857,146.321,424.329,142.912z"/>
<path d="M55.609,119.233c13.535,0,24.548,11.012,24.548,24.548c0,4.151,3.365,7.515,7.515,7.515c4.15,0,7.515-3.364,7.515-7.515
	c0-13.536,11.013-24.548,24.548-24.548c4.15,0,7.515-3.364,7.515-7.515c0-4.151-3.365-7.515-7.515-7.515
	c-13.535,0-24.548-11.012-24.548-24.548c0-4.151-3.365-7.515-7.515-7.515c-4.15,0-7.515,3.364-7.515,7.515
	c0,13.536-11.013,24.548-24.548,24.548c-4.15,0-7.515,3.364-7.515,7.515C48.094,115.869,51.459,119.233,55.609,119.233z
	 M87.671,102.834c2.472,3.409,5.475,6.413,8.884,8.884c-3.409,2.472-6.413,5.476-8.884,8.884c-2.472-3.409-5.475-6.413-8.884-8.884
	C82.197,109.246,85.199,106.243,87.671,102.834z"/>
<path d="M23.546,473.257c-4.15,0-7.515,3.364-7.515,7.515v23.713c0,4.151,3.365,7.515,7.515,7.515s7.515-3.364,7.515-7.515v-23.713
	C31.061,476.621,27.696,473.257,23.546,473.257z"/>
<path d="M136.434,251.611c-0.367-0.341-0.759-0.636-1.17-0.89v-10.753c0-26.242-21.351-47.593-47.593-47.593
	s-47.593,21.351-47.593,47.593v10.75c-0.405,0.251-0.794,0.543-1.156,0.88c-14.547,13.514-22.891,32.648-22.891,52.496v145.952
	c0,4.151,3.365,7.515,7.515,7.515s7.515-3.364,7.515-7.515V304.094c0-10.914,3.201-21.552,9.018-30.614v70.692
	c0,21.823,17.755,39.577,39.577,39.577h16.031c21.823,0,39.577-17.755,39.577-39.577V273.48c5.816,9.063,9.018,19.699,9.018,30.614
	v200.391c0,4.151,3.365,7.515,7.515,7.515s7.515-3.364,7.515-7.515V304.094C159.311,284.254,150.973,265.125,136.434,251.611z
	 M120.235,344.172c0,13.536-11.013,24.548-24.548,24.548H79.656c-13.535,0-24.548-11.012-24.548-24.548V239.969
	c0-17.956,14.609-32.564,32.564-32.564s32.564,14.608,32.564,32.564V344.172z"/>
<path d="M88.673,216.423h-1.002c-4.15,0-7.515,3.364-7.515,7.515s3.365,7.515,7.515,7.515h1.002c4.15,0,7.515-3.364,7.515-7.515
	S92.823,216.423,88.673,216.423z"/>
<path d="M104.704,240.47h-1.002c-4.15,0-7.515,3.364-7.515,7.515s3.365,7.515,7.515,7.515h1.002c4.15,0,7.515-3.364,7.515-7.515
	S108.855,240.47,104.704,240.47z"/>
<path d="M72.642,240.47H71.64c-4.15,0-7.515,3.364-7.515,7.515s3.365,7.515,7.515,7.515h1.002c4.15,0,7.515-3.364,7.515-7.515
	S76.792,240.47,72.642,240.47z"/>
<path d="M104.704,272.532h-1.002c-4.15,0-7.515,3.364-7.515,7.515s3.365,7.515,7.515,7.515h1.002c4.15,0,7.515-3.364,7.515-7.515
	S108.855,272.532,104.704,272.532z"/>
<path d="M72.642,272.532H71.64c-4.15,0-7.515,3.364-7.515,7.515s3.365,7.515,7.515,7.515h1.002c4.15,0,7.515-3.364,7.515-7.515
	S76.792,272.532,72.642,272.532z"/>
<path d="M104.704,304.595h-1.002c-4.15,0-7.515,3.364-7.515,7.515s3.365,7.515,7.515,7.515h1.002c4.15,0,7.515-3.364,7.515-7.515
	S108.855,304.595,104.704,304.595z"/>
<path d="M72.642,304.595H71.64c-4.15,0-7.515,3.364-7.515,7.515s3.365,7.515,7.515,7.515h1.002c4.15,0,7.515-3.364,7.515-7.515
	S76.792,304.595,72.642,304.595z"/>
<path d="M104.704,336.658h-1.002c-4.15,0-7.515,3.364-7.515,7.515s3.365,7.515,7.515,7.515h1.002c4.15,0,7.515-3.364,7.515-7.515
	S108.855,336.658,104.704,336.658z"/>
<path d="M72.642,336.658H71.64c-4.15,0-7.515,3.364-7.515,7.515s3.365,7.515,7.515,7.515h1.002c4.15,0,7.515-3.364,7.515-7.515
	S76.792,336.658,72.642,336.658z"/>
<path d="M320.125,336.658c-4.15,0-7.515,3.364-7.515,7.515v160.313c0,4.151,3.365,7.515,7.515,7.515s7.515-3.364,7.515-7.515
	V344.172C327.64,340.021,324.275,336.658,320.125,336.658z"/>
<path d="M305.335,163.976c-0.532-0.506-1.121-0.914-1.742-1.233v-2.931c0-26.242-21.351-47.593-47.593-47.593
	s-47.593,21.351-47.593,47.593v2.735c-0.411,0.253-0.804,0.549-1.169,0.891c-14.539,13.513-22.878,32.643-22.878,52.484v288.564
	c0,4.151,3.365,7.515,7.515,7.515s7.515-3.364,7.515-7.515V215.922c0-10.914,3.201-21.551,9.018-30.614v78.708
	c0,21.823,17.755,39.577,39.577,39.577h16.031c21.823,0,39.577-17.755,39.577-39.577v-78.775c5.865,9.046,9.018,19.585,9.018,30.681
	v97.19c0,4.151,3.365,7.515,7.515,7.515s7.515-3.364,7.515-7.515v-97.19C327.64,196.088,319.718,177.64,305.335,163.976z
	 M223.436,226.889c0.34-0.241,0.667-0.506,0.972-0.811l64.155-64.155v26.956c-0.279,0.21-0.551,0.434-0.805,0.688l-64.323,64.322
	V226.889z M284.729,144.501l-61.293,61.294v-27c0.34-0.241,0.667-0.506,0.972-0.811l46.902-46.902
	C277,134.127,281.684,138.811,284.729,144.501z M253.807,127.331l-30.288,30.288C224.603,141.408,237.597,128.416,253.807,127.331z
	 M225.269,273.311l63.295-63.294v26.956c-0.279,0.209-0.551,0.434-0.805,0.687l-49.07,49.07
	C232.618,284.237,227.763,279.381,225.269,273.311z M264.016,288.564h-5.905l30.452-30.452v5.905
	C288.564,277.552,277.551,288.564,264.016,288.564z"/>
<path d="M473.662,276.193c-0.532-0.505-1.119-0.912-1.74-1.231v-2.931c0-26.242-21.351-47.593-47.593-47.593
	c-26.242,0-47.593,21.351-47.593,47.593v3.006c-0.691,0.334-1.345,0.777-1.93,1.337c-14.263,13.648-22.117,32.033-22.117,51.767
	v176.344c0,4.151,3.365,7.515,7.515,7.515s7.515-3.364,7.515-7.515V328.141c0-11.088,3.153-21.628,9.018-30.676v78.77
	c0,21.823,17.755,39.577,39.577,39.577h16.031c21.823,0,39.577-17.755,39.577-39.577v-78.774c5.865,9.046,9.018,19.584,9.018,30.68
	v176.344c0,4.151,3.365,7.515,7.515,7.515s7.515-3.364,7.515-7.515V328.141C495.969,308.307,488.046,289.858,473.662,276.193z
	 M448.376,311.609c2.855,0,5.701-0.197,8.517-0.574v23.483c-5.368,1.417-10.915,2.14-16.532,2.14
	c-18.023,0-35.363-7.612-47.573-20.884c-0.317-0.345-0.661-0.647-1.022-0.918v-37.732
	C402.329,297.688,423.729,311.609,448.376,311.609z M391.765,360.461v-25.353c13.837,10.639,30.943,16.579,48.595,16.579
	c5.587,0,11.121-0.591,16.532-1.733v25.079c-5.412,1.126-10.956,1.703-16.532,1.703c-17.7,0-34.496-5.623-48.575-16.261
	C391.778,360.47,391.771,360.466,391.765,360.461z M456.006,264.508c-15.011-0.179-27.894-10.778-31.295-25.03
	C439.907,239.654,452.628,250.288,456.006,264.508z M410.047,242.774c4.955,21.099,24.107,36.772,46.345,36.772
	c0.167,0,0.334-0.007,0.501-0.009v16.289c-2.799,0.494-5.651,0.752-8.517,0.752c-25.934,0-47.162-20.171-48.519-45.996
	C402.691,247.353,406.15,244.685,410.047,242.774z M432.344,400.783h-16.031c-12.742,0-23.243-9.758-24.433-22.194
	c14.638,8.644,31.195,13.177,48.48,13.177c3.861,0,7.71-0.234,11.525-0.693C447.397,396.967,440.309,400.783,432.344,400.783z"/>
<g>
</g>
<g>
</g>
<g>
</g>
<g>
</g>
<g>
</g>
<g>
</g>
<g>
</g>
<g>
</g>
<g>
</g>
<g>
</g>
<g>
</g>
<g>
</g>
<g>
</g>
<g>
</g>
<g>
</g>
</svg>
